<svg width="23" height="23" viewBox="0 0 23 23" fill="none" xmlns="http://www.w3.org/2000/svg">
<circle cx="11.5" cy="11.5" r="11.5" fill="black"/>
<path d="M13.336 12.76C13.7093 13.3893 14.0827 13.9493 14.456 14.44C14.84 14.92 15.3413 15.512 15.96 16.216C16.0347 16.2907 16.072 16.376 16.072 16.472C16.072 16.6213 15.9867 16.7493 15.816 16.856C15.656 16.9627 15.4587 17.016 15.224 17.016C14.8933 17.016 14.536 16.8773 14.152 16.6C13.8107 16.3547 13.5067 16.0293 13.24 15.624C12.9733 15.2187 12.664 14.6907 12.312 14.04C12.0347 13.5387 11.8693 13.2453 11.816 13.16C11.4 13.3307 10.7493 13.4373 9.864 13.48C9.864 13.8427 9.896 14.3333 9.96 14.952C10.024 15.592 10.056 16.056 10.056 16.344C10.056 16.536 9.96 16.696 9.768 16.824C9.58667 16.952 9.37867 17.016 9.144 17.016C8.86667 17.016 8.65333 16.904 8.504 16.68C8.35467 16.3813 8.25867 16.024 8.216 15.608C8.17333 15.192 8.152 14.696 8.152 14.12C8.152 13.512 8.18933 12.824 8.264 12.056C8.328 11.2027 8.36 10.5733 8.36 10.168C8.36 9.83733 8.328 9.39467 8.264 8.84C8.25333 8.744 8.23733 8.57867 8.216 8.344C8.19467 8.10933 8.184 7.896 8.184 7.704C8.184 7.55467 8.23733 7.42667 8.344 7.32C8.46133 7.20267 8.584 7.12267 8.712 7.08C9.576 6.94133 10.4187 6.872 11.24 6.872C12.6373 6.872 13.7947 7.13333 14.712 7.656C15.6293 8.17867 16.088 8.97333 16.088 10.04C16.088 10.3707 16.0133 10.6907 15.864 11C15.7253 11.2987 15.5333 11.5493 15.288 11.752C14.6373 12.2533 13.9867 12.5893 13.336 12.76ZM14.408 9.992C14.408 9.48 14.136 9.064 13.592 8.744C13.048 8.41333 12.2747 8.248 11.272 8.248C10.824 8.248 10.3813 8.30133 9.944 8.408L9.96 9.224C9.96 9.69333 9.944 10.152 9.912 10.6C9.88 11.048 9.864 11.528 9.864 12.04C10.0453 11.9973 10.2373 11.9707 10.44 11.96C10.6427 11.9387 10.776 11.9227 10.84 11.912C11.3093 11.8693 11.672 11.816 11.928 11.752C12.408 11.6027 12.8027 11.4693 13.112 11.352C13.432 11.224 13.7253 11.048 13.992 10.824C14.2693 10.5893 14.408 10.312 14.408 9.992Z" fill="white"/>
</svg>
